<?xml version="1.0" encoding="UTF-8"?>
<svg xmlns="http://www.w3.org/2000/svg" viewBox="0 0 1024 1024">
  <defs>
    <style>
      .cls-1 {
        letter-spacing: .09em;
      }

      .cls-2 {
        letter-spacing: .1em;
      }

      .cls-3 {
        letter-spacing: .07em;
      }

      .cls-4 {
        fill: #ec6669;
      }

      .cls-5 {
        fill: #c4c4c4;
      }

      .cls-6 {
        font-size: 48px;
        letter-spacing: .1em;
      }

      .cls-6, .cls-7 {
        fill: #1d1d1b;
        font-family: Montserrat-Medium, Montserrat;
        font-weight: 500;
      }

      .cls-7 {
        font-size: 84px;
      }

      .cls-8 {
        fill: #e30913;
      }

      .cls-9 {
        fill: #c11718;
      }

      .cls-10 {
        fill: #f08587;
      }
    </style>
  </defs>
  <g id="Ebene_2" data-name="Ebene 2">
    <polygon class="cls-10" points="394.01 418.02 475 418.02 475 418.97 477 418.97 477 420.02 478 420.02 478 421.99 479 421.99 479 429 478 429 478 429.99 477 429.99 477 431 476 431 476 432.01 475 432.01 475 433 474 433 474 434 473.01 434 473.01 435 472 435 472 435.99 471.01 435.99 471.01 436.97 377.99 523.02 328.99 474.02 328.99 473 394.01 418.02"/>
    <path class="cls-9" d="M377,523h2v1h1v1h1v1h1v1h1v1h1l97,90.01v1h.99v5h-1v1.99h-.99v1h-1v.99h-.99v.98h-80.02l-37.95-35.69-14.25-12.17-7.82-5.1h-.99l-.99-.03s0-1.02,0-1-2.01.02-2.01.02v-1.02h-6v.98h-3.01v-.98l52-50.99Z"/>
  </g>
  <g id="Ebene_3" data-name="Ebene 3">
    <polygon class="cls-8" points="377.99 523.02 377 523.02 318.99 581.03 309.99 590 309 590 308 590 308 591 307.01 591 307.01 592 305.02 592 305.02 593 301.99 593 301.99 593.99 296.11 593.99 295.06 593.99 295.06 593.02 293.01 593.02 293.01 592.04 292.03 592.04 292.03 591.07 290.99 590.99 290.01 590.99 290.01 590 288.98 590 288.98 589.01 287.98 589.01 287.98 588.01 286.98 588.01 286.98 587.02 285.99 587.02 285.99 586.02 285.99 585.01 284.98 585.01 284.98 584.02 284.98 583.02 284 583.02 284 522 376.98 522 377.99 523.02"/>
    <polygon class="cls-4" points="377.99 520.99 377 520.99 318.99 462.97 309.99 454 309 454.01 308 454.01 308 453.01 307.01 453.01 307.01 452.01 305.02 452.01 305.02 451 301.99 451 301.99 450.02 296.11 450.02 295.06 450.02 295.06 450.98 293.01 450.98 293.01 451.97 292.03 451.97 292.03 452.93 290.99 453.02 290.01 453.02 290.01 454.01 288.98 454.01 288.98 455 287.98 455 287.98 456 286.98 456 286.98 456.99 285.99 456.99 285.99 457.99 285.99 459 284.98 459 284.98 459.99 284.98 460.99 284 460.99 284 522 376.98 522 377.99 520.99"/>
  </g>
  <g id="Ebene_4" data-name="Ebene 4">
    <text class="cls-7" transform="translate(491.87 513.96)"><tspan class="cls-3" x="0" y="0">K</tspan><tspan class="cls-1" x="66.53" y="0">A</tspan><tspan class="cls-2" x="135.66" y="0">OS</tspan></text>
    <text class="cls-6" transform="translate(494.87 566.8)"><tspan x="0" y="0">Media</tspan></text>
    <rect class="cls-5" x="494.87" y="519.63" width="265.33" height="6.22"/>
  </g>
</svg>