<?xml version="1.0" encoding="UTF-8" standalone="no"?>
<svg
   version="1.2"
   viewBox="0 0 263 281"
   width="263"
   height="281"
   id="svg4"
   sodipodi:docname="K_logo.svg"
   inkscape:version="1.4.3 (0d15f75, 2025-12-25)"
   xmlns:inkscape="http://www.inkscape.org/namespaces/inkscape"
   xmlns:sodipodi="http://sodipodi.sourceforge.net/DTD/sodipodi-0.dtd"
   xmlns="http://www.w3.org/2000/svg"
   xmlns:svg="http://www.w3.org/2000/svg">
  <defs
     id="defs4" />
  <sodipodi:namedview
     id="namedview4"
     pagecolor="#ffffff"
     bordercolor="#000000"
     borderopacity="0.25"
     inkscape:showpageshadow="2"
     inkscape:pageopacity="0.0"
     inkscape:pagecheckerboard="0"
     inkscape:deskcolor="#d1d1d1"
     inkscape:zoom="2.8718861"
     inkscape:cx="75.734201"
     inkscape:cy="1.5669145"
     inkscape:window-width="1920"
     inkscape:window-height="1009"
     inkscape:window-x="-8"
     inkscape:window-y="-8"
     inkscape:window-maximized="1"
     inkscape:current-layer="svg4" />
  <style
     id="style1">tspan{white-space:pre}.a{fill:#f08487}.b{fill:#c11718}.c{fill:#ec6669}.d{fill:#e30a13}</style>
  <path
     class="a"
     d="m146.6 0.2c0 0 107.1-0.1 107.8 0 2.7 0.3 4.5 3 5.4 5.3 1.2 2.9 0 9.3 0 9.3l-10.6 10.7-124 114.6-65.3-65.3v-1.3z"
     id="path1"
     style="fill:#b85050;fill-opacity:1" />
  <path
     class="b"
     d="m122.1 139.4h2.6l1.4 1.3c0.9 1 0.3 0.3 1.3 1.3l1.3 1.4 1.4 1.3 1.3 1.3 129.3 120c0 0 1.1 0.8 1.3 1.3 0.8 2.1 0.4 4.7 0.4 6.9 0 7.3-5.7 6.4-5.7 6.4h-106.7l-50.5-47.5-19.2-16.2-10.2-6.9c-2-1.2-3.4-1.3-5.3-1.3l-8-0.1h-4.1v-1.3z"
     id="path2"
     style="fill:#750000;fill-opacity:1" />
  <path
     class="c"
     d="m125.2 137.5h-1.3l-77.3-77.3c0 0-8-8-12-11.9-2.7-2.8-6.7-5-10.7-5.3-2.6-0.3-7.8 0-7.8 0 0 0-0.9 0-1.4 0-9.2 0-14.7 6.3-14.7 14.6v81.3h123.9z"
     id="path3"
     style="fill:#ba3c3c;fill-opacity:1" />
  <path
     class="d"
     d="m125.2 140.1h-1.3l-77.3 77.4c0 0-8 7.9-12 11.9-2.7 2.7-6.7 4.9-10.7 5.3-2.6 0.3-7.8 0-7.8 0 0 0-0.9 0-1.4 0-9.2 0-14.7-6.3-14.7-14.6v-81.3h123.9z"
     id="path4"
     style="fill:#8b0000;fill-opacity:1" />
</svg>
