<svg version="1.2" xmlns="http://www.w3.org/2000/svg" viewBox="0 0 700 370" width="700" height="370"><style>tspan{white-space:pre}.a{fill:#b85050}.b{fill:#750000}.c{fill:#ba3c3c}.d{fill:#ec6669}.e{fill:#8b0000}.f{font-size: 84px;fill: #1d1d1b;font-family: "Montserrat"}.g{font-size: 48px;fill: #1d1d1b;font-family: "Montserrat"}.h{fill:#c5c4c5}</style><path class="a" d="m196 1.7c0 0 141.7-0.1 142.6 0 3.6 0.4 6 3.9 7.3 6.9 1.6 3.8 0 12.2 0 12.2l-14.1 13.8-164 149.4-86.4-85.1v-1.7z"/><path class="b" d="m163.6 183h3.5l1.8 1.7c1.3 1.3 0.4 0.5 1.7 1.8l1.8 1.7 1.8 1.7 1.7 1.8 171.1 156.2c0 0 1.4 1 1.7 1.8 1.1 2.6 0.6 6 0.6 8.9-0.1 9.5-7.6 8.3-7.6 8.3h-141.1l-66.9-61.9-25.4-21-13.5-9c-2.6-1.6-4.4-1.7-7-1.7l-10.6-0.1h-5.3v-1.7z"/><path class="c" d="m167.8 180.6h-1.8l-102.3-100.7c0 0-10.5-10.4-15.8-15.6-3.7-3.5-8.9-6.4-14.2-6.9-3.5-0.3-10.3 0-10.3 0 0 0-1.3 0-1.9 0-12.2 0-19.5 8.3-19.5 19.1v105.9h164z"/><path class="d" d="m-46.2 257.4h-1.4l-77.3-77.4c0 0-8-7.9-12-11.9-2.7-2.7-6.7-5-10.6-5.3-2.7-0.3-7.9 0-7.9 0 0 0-0.9 0-1.4 0-9.2 0-14.7 6.3-14.7 14.6v81.3h123.9z"/><path class="e" d="m167.8 184h-1.8l-102.3 100.7c0 0-10.5 10.4-15.8 15.6-3.7 3.5-8.9 6.4-14.2 6.9-3.5 0.3-10.3 0-10.3 0 0 0-1.3 0-1.9 0-12.2 0-19.5-8.2-19.5-19.1v-105.9h164z"/><text style="transform:matrix(1.333,0,0,1.333,313.008,171.752)"><tspan x="0" y="0" class="f" dx="0 8 8 8 8" >KAOS
</tspan></text><text style="transform:matrix(1.333,0,0,1.333,317.007,242.183)"><tspan x="0" y="0" class="g">Media
</tspan></text><path class="h" d="m670.7 187.6h-353.7v-8.3h353.7z"/></svg>