<svg version="1.2" xmlns="http://www.w3.org/2000/svg" viewBox="0 0 700 370" width="700" height="370">
	<style>
		tspan { white-space:pre } 
		.s0 { fill: #b85050 } 
		.s1 { fill: #750000 } 
		.s2 { fill: #ba3c3c } 
		.s3 { fill: #ec6669 } 
		.s4 { fill: #8b0000 } 
		.t5 { font-size: 84px;fill: #ffffff;font-family: "Montserrat" } 
		.t6 { font-size: 48px;fill: #fffff3;font-family: "Montserrat" } 
		.s7 { fill: #c5c4c5 } 
	</style>
	<g id="layer-MC1">
		<path id="path3" class="s0" d="m196 1.72c0 0 141.73-0.08 142.63 0 3.6 0.34 5.97 3.88 7.24 6.89 1.59 3.75 0 12.17 0 12.17l-14.08 13.84-164.03 149.37-86.4-85.05v-1.77z"/>
		<path id="path4" class="s1" d="m163.58 183h3.52l1.77 1.73c1.29 1.27 0.46 0.45 1.77 1.74l1.75 1.74 1.77 1.72 1.76 1.73 171.04 156.25c0 0 1.44 0.99 1.76 1.74 1.12 2.68 0.59 6.07 0.57 8.96-0.06 9.48-7.58 8.34-7.58 8.34h-141.1l-66.92-61.95-25.36-21.01-13.55-8.96c-2.53-1.65-4.39-1.77-7.02-1.74l-10.58-0.07h-5.31v-1.71z"/>
	</g>
	<g id="layer-MC2">
		<path id="path6" class="s2" d="m167.76 180.61h-1.74l-102.3-100.7c0 0-10.57-10.39-15.86-15.58-3.62-3.54-8.88-6.42-14.11-6.92-3.53-0.34-10.37 0-10.37 0 0 0-1.24 0-1.86 0-12.18 0.01-19.47 8.24-19.5 19.05v105.92h163.95z"/>
		<path id="path9" class="s3" d="m-46.23 257.35h-1.32l-77.33-77.32c0 0-7.98-7.98-11.98-11.96-2.74-2.72-6.71-4.93-10.67-5.31-2.66-0.27-7.84 0-7.84 0 0 0-0.93 0-1.4 0-9.2 0-14.72 6.32-14.74 14.62v81.32h123.92z"/>
		<path id="path10" class="s4" d="m167.76 183.99h-1.74l-102.3 100.71c0 0-10.57 10.39-15.86 15.57-3.62 3.54-8.88 6.42-14.11 6.92-3.53 0.34-10.37 0-10.37 0 0 0-1.24 0-1.86 0-12.18 0-19.47-8.24-19.5-19.04v-105.92h163.95z"/>
	</g>
	<g id="layer-MC3">
		<text id="KAOS" style="transform: matrix(1.333,0,0,1.333,313.008,171.752)">
			<tspan x="0" y="0" class="t5" dx="0 8 8 8 8" >KAOS
</tspan>
		</text>
		<text id="Media" style="transform: matrix(1.333,0,0,1.333,317.007,242.183)">
			<tspan x="0" y="0" class="t6">Media
</tspan>
		</text>
		<path id="path7" class="s7" d="m670.65 187.61h-353.64v-8.3h353.64z"/>
	</g>
</svg>